name Walk5.mot
datacolumns 19
datarows 27
range 2.23500000 2.36500000
endheader

                time	   L_ground_force_vx	   L_ground_force_vy	   L_ground_force_vz	   L_ground_force_px	   L_ground_force_py	   L_ground_force_pz	   R_ground_force_vx	   R_ground_force_vy	   R_ground_force_vz	   R_ground_force_px	   R_ground_force_py	   R_ground_force_pz	   L_ground_torque_x	   L_ground_torque_y	   L_ground_torque_z	   R_ground_torque_x	   R_ground_torque_y	   R_ground_torque_z	
          2.23500000	         22.40588621	        650.02454807	         29.18487416	         -0.36164611	          0.00000000	         -0.02185185	          0.00725177	          0.11622400	          0.01350778	          0.00006491	          0.00000000	          0.00005128	          0.00000000	          0.55926523	          0.00000000	          0.00000000	         -0.00285804	          0.00000000	
          2.24000000	         23.99360323	        653.37629868	         29.60189980	         -0.36004596	          0.00000000	         -0.02215420	          0.00626948	          0.16203396	          0.01794084	          0.00008530	          0.00000000	          0.00006662	          0.00000000	          0.55243346	          0.00000000	          0.00000000	         -0.00339595	          0.00000000	
          2.24500000	         25.62084210	        656.87662408	         30.02963591	         -0.35840655	          0.00000000	         -0.02246435	          0.00396450	          0.21348574	          0.02264105	          0.00010656	          0.00000000	          0.00008233	          0.00000000	          0.54637738	          0.00000000	          0.00000000	         -0.00381594	          0.00000000	
          2.25000000	         27.29153046	        660.51910735	         30.46105234	         -0.35672578	          0.00000000	         -0.02278392	         -0.00011876	          0.26738983	          0.02717819	          0.00012657	          0.00000000	          0.00009667	          0.00000000	          0.54136009	          0.00000000	          0.00000000	         -0.00400026	          0.00000000	
          2.25500000	         29.00711396	        664.30262151	         30.89095289	         -0.35500076	          0.00000000	         -0.02311531	         -0.00647148	          0.31847009	          0.03090149	          0.00014218	          0.00000000	          0.00010711	          0.00000000	          0.53778393	          0.00000000	          0.00000000	         -0.00379432	          0.00000000	
          2.26000000	         30.76594003	        668.22557474	         31.31624871	         -0.35322761	          0.00000000	         -0.02346126	         -0.01557966	          0.35884730	          0.03289650	          0.00014897	          0.00000000	          0.00011018	          0.00000000	          0.53619168	          0.00000000	          0.00000000	         -0.00300525	          0.00000000	
          2.26500000	         32.56283568	        672.27884282	         31.73597594	         -0.35140196	          0.00000000	         -0.02382353	         -0.02786136	          0.37755476	          0.03195041	          0.00014119	          0.00000000	          0.00010138	          0.00000000	          0.53723134	          0.00000000	          0.00000000	         -0.00140416	          0.00000000	
          2.27000000	         34.38868831	        676.44592340	         32.15066726	         -0.34951944	          0.00000000	         -0.02420298	         -0.04357710	          0.36016369	          0.02653471	          0.00011165	          0.00000000	          0.00007515	          0.00000000	          0.54165329	          0.00000000	          0.00000000	          0.00126573	          0.00000000	
          2.27500000	         36.23116993	        680.70532264	         32.56138915	         -0.34757589	          0.00000000	         -0.02460012	         -0.06270964	          0.28862612	          0.01481712	          0.00005181	          0.00000000	          0.00002498	          0.00000000	          0.55056757	          0.00000000	          0.00000000	          0.00527300	          0.00000000	
          2.28000000	         38.07656027	        685.02951550	         32.96800681	         -0.34556769	          0.00000000	         -0.02501464	         -0.08481066	          0.14147617	         -0.00528243	         -0.00004788	          0.00000000	         -0.00005634	          0.00000000	          0.56512338	          0.00000000	          0.00000000	          0.01087155	          0.00000000	
          2.28500000	         39.91130555	        689.38386880	         33.36850003	         -0.34349236	          0.00000000	         -0.02544417	         -0.10881502	         -0.10543446	         -0.03597379	         -0.00019744	          0.00000000	         -0.00017619	          0.00000000	          0.58620369	          0.00000000	          0.00000000	          0.01826104	          0.00000000	
          2.29000000	         41.72316803	        693.73043703	         33.75851974	         -0.34134916	          0.00000000	         -0.02588637	         -0.13282698	         -0.47745886	         -0.07939669	         -0.00040632	          0.00000000	         -0.00034136	          0.00000000	          0.61465310	          0.00000000	          0.00000000	          0.02753197	          0.00000000	
          2.29500000	         43.50349750	        698.03429645	         34.13167655	         -0.33913869	          0.00000000	         -0.02633932	         -0.15388944	         -0.99870207	         -0.13731764	         -0.00068191	          0.00000000	         -0.00055681	          0.00000000	          0.65141837	          0.00000000	          0.00000000	          0.03859339	          0.00000000	
          2.30000000	         45.24735719	        702.26752045	         34.48074096	         -0.33686294	          0.00000000	         -0.02680049	         -0.16775493	         -1.68835015	         -0.21070328	         -0.00102758	          0.00000000	         -0.00082413	          0.00000000	          0.69718354	          0.00000000	          0.00000000	          0.05108271	          0.00000000	
          2.30500000	         46.95277911	        706.41231209	         34.79946030	         -0.33452524	          0.00000000	         -0.02726680	         -0.16868761	         -2.55555239	         -0.29915372	         -0.00143987	          0.00000000	         -0.00113933	          0.00000000	          0.75221312	          0.00000000	          0.00000000	          0.06425836	          0.00000000	
          2.31000000	         48.62057497	        710.46041959	         35.08352024	         -0.33212969	          0.00000000	         -0.02773555	         -0.14933808	         -3.59267860	         -0.40018748	         -0.00190522	          0.00000000	         -0.00149033	          0.00000000	          0.81636774	          0.00000000	          0.00000000	          0.07687935	          0.00000000	
          2.31500000	         50.25360976	        714.40873361	         35.33101041	         -0.32968165	          0.00000000	         -0.02820381	         -0.10074723	         -4.76687401	         -0.50838313	         -0.00239590	          0.00000000	         -0.00185389	          0.00000000	          0.88921156	          0.00000000	          0.00000000	          0.08707888	          0.00000000	
          2.32000000	         51.85541870	        718.24955260	         35.54229683	         -0.32718756	          0.00000000	         -0.02866884	         -0.01255070	         -6.01000109	         -0.61440332	         -0.00286558	          0.00000000	         -0.00219217	          0.00000000	          0.97017551	          0.00000000	          0.00000000	          0.09224454	          0.00000000	
          2.32500000	         53.42903525	        721.96475549	         35.72031091	         -0.32465367	          0.00000000	         -0.02912847	          0.12652905	         -7.20730634	         -0.70395586	         -0.00324458	          0.00000000	         -0.00244932	          0.00000000	          1.05866130	          0.00000000	          0.00000000	          0.08892344	          0.00000000	
          2.33000000	         54.97699798	        725.52461756	         35.86932899	         -0.32208588	          0.00000000	         -0.02958125	          0.32780259	         -8.18549660	         -0.75678476	         -0.00343543	          0.00000000	         -0.00254825	          0.00000000	          1.15378924	          0.00000000	          0.00000000	          0.07277781	          0.00000000	
          2.33500000	         56.50159453	        728.88446565	         35.99127432	         -0.31949059	          0.00000000	         -0.03002522	          0.60123721	         -8.70136507	         -0.74583225	         -0.00330937	          0.00000000	         -0.00238825	          0.00000000	          1.25420435	          0.00000000	          0.00000000	          0.03862511	          0.00000000	
          2.34000000	         58.00557649	        731.98580913	         36.08243716	         -0.31687516	          0.00000000	         -0.03045653	          0.95347617	         -8.43267724	         -0.63677108	         -0.00270465	          0.00000000	         -0.00184421	          0.00000000	          1.35787883	          0.00000000	          0.00000000	         -0.01939549	          0.00000000	
          2.34500000	         59.49349390	        734.76226625	         36.13264509	         -0.31424802	          0.00000000	         -0.03087032	          1.38516008	         -6.97370499	         -0.38817155	         -0.00142810	          0.00000000	         -0.00076840	          0.00000000	          1.46213955	          0.00000000	          0.00000000	         -0.10747962	          0.00000000	
          2.35000000	         60.97360495	        737.14710138	         36.12545757	         -0.31161928	          0.00000000	         -0.03126187	          1.88749007	         -3.83855963	          0.04736197	          0.00073865	          0.00000000	          0.00100396	          0.00000000	          1.56356529	          0.00000000	          0.00000000	         -0.23158098	          0.00000000	
          2.35500000	         62.45936052	        739.08132573	         36.03985642	         -0.30900140	          0.00000000	         -0.03162730	          2.43803275	          1.52372464	          0.72068304	          0.00402634	          0.00000000	          0.00364393	          0.00000000	          1.65839961	          0.00000000	          0.00000000	         -0.39654168	          0.00000000	
          2.36000000	         63.96991247	        740.51706811	         35.85380774	         -0.30640911	          0.00000000	         -0.03196257	          2.99585992	          9.69764388	          1.68176580	          0.00865654	          0.00000000	          0.00731124	          0.00000000	          1.74306011	          0.00000000	          0.00000000	         -0.60487332	          0.00000000	
          2.36500000	         65.53054636	        741.41684727	         35.54841571	         -0.30385933	          0.00000000	         -0.03226401	          3.49625065	         21.24789590	          2.97304982	          0.01480918	          0.00000000	          0.01212830	          0.00000000	          1.81436456	          0.00000000	          0.00000000	         -0.85514359	          0.00000000	
